# xmcd
#
# Track frame offsets: 
#        150
#        3369
#        24658
#        27405
#
# Disc length: 668 seconds
#
# Revision: 0
# Processed by: cddbd v1.5.2PL0 Copyright (c) Steve Scherf et al.
# Submitted via: ExactAudioCopy v0.95a5
#
DISCID=25029a04
DTITLE=郝蕾 - 再回首
DYEAR=2007
DGENRE=POP
TTITLE0=单曲推荐OS版
TTITLE1=再回首
TTITLE2=宣传广告
TTITLE3=OS完整版
EXTD=
EXTT0=
EXTT1=
EXTT2=
EXTT3=
PLAYORDER=
